<?xml version="1.0" encoding="utf-8"?>
<!-- Generator: Adobe Illustrator 18.1.1, SVG Export Plug-In . SVG Version: 6.00 Build 0)  -->
<svg version="1.1" id="Layer_1" xmlns="http://www.w3.org/2000/svg" xmlns:xlink="http://www.w3.org/1999/xlink" x="0px" y="0px"
	 viewBox="0 0 20 20" enable-background="new 0 0 20 20" xml:space="preserve">
<g>
	<path fill="#AD0000" d="M4.5,48.2L4.5,48.2c-0.1,0-0.2-0.1-0.2-0.2v-0.2c0-0.1,0.1-0.2,0.2-0.2l0,0c0.1,0,0.2,0.1,0.2,0.2v0.2
		C4.8,48.1,4.7,48.2,4.5,48.2z"/>
	<path fill="#AD0000" d="M0.8,47.3V48c0,0.1,0.1,0.2,0.2,0.2s0.2-0.1,0.2-0.2v-0.2c0,0,0-0.1,0-0.1c0,0,0,0,0.1,0
		c0.1,0,0.1,0,0.1,0.1v0.9c0,0.1,0.1,0.2,0.2,0.2s0.2-0.1,0.2-0.2v-1.1c0,0,0-0.1,0-0.1c0,0,0.1,0,0.1,0c0.1,0,0.1,0.1,0.1,0.1v0.6
		c0,0.1,0.1,0.2,0.2,0.2s0.2-0.1,0.2-0.2v-0.1c0,0,0-0.1,0-0.1s0,0,0.1,0c0.1,0,0.1,0.1,0.1,0.1v0.1c0,0.1,0.1,0.2,0.2,0.2
		c0.1,0,0.2-0.1,0.2-0.2v-0.4c0,0,0-0.1,0-0.1c0,0,0,0,0.1,0c0.1,0,0.1,0,0.1,0.1v0.3c0,0.1,0.1,0.2,0.2,0.2c0.1,0,0.2-0.1,0.2-0.2
		v-0.8c0-0.1,0-0.1-0.1-0.2c0,0-0.1-0.1-0.2-0.1c-0.1,0-0.2,0.1-0.2,0.2v0c0,0.1-0.1,0.1-0.1,0.1c-0.1,0-0.1,0-0.1-0.1v-0.7
		c0-0.1,0-0.1-0.1-0.2c0,0-0.1-0.1-0.2-0.1c-0.1,0-0.2,0.1-0.2,0.2v1c0,0.1-0.1,0.1-0.1,0.1c-0.1,0-0.1,0-0.1-0.1v-1.2
		c0-0.1,0-0.1-0.1-0.2c0,0-0.1-0.1-0.2-0.1c-0.1,0-0.2,0.1-0.2,0.2v0.7c0,0.1-0.1,0.1-0.1,0.1c-0.1,0-0.1-0.1-0.1-0.1v-0.3
		c0-0.1,0-0.1-0.1-0.2c0,0-0.1-0.1-0.2-0.1c-0.1,0-0.2,0.1-0.2,0.2v0.5c0,0.1,0,0.1-0.1,0.1c-0.1,0-0.1,0-0.1-0.1v-0.1
		c0-0.1,0-0.1-0.1-0.2c0,0-0.1-0.1-0.2-0.1C0.9,47,0.8,47.1,0.8,47.3z"/>
</g>
<g>
	<path fill="#FFFFFF" d="M5.4,48l-0.1,0.3H5.3l0.3-1.4h0.1L6,48.3H5.9L5.8,48H5.4z M5.4,47.9h0.4L5.6,47L5.4,47.9z"/>
	<path fill="#FFFFFF" d="M6.4,47l0,1c0,0.2,0,0.3-0.3,0.3h0v-0.1c0.2,0,0.2-0.1,0.2-0.3L6.4,47l0.4-0.1v1.4H6.7V47H6.4z"/>
	<path fill="#FFFFFF" d="M7.5,47.5L7.5,47.5l-0.4,0.1v0.6h0.5v0.1H7v-1.4h0.5V47H7.1v0.6L7.5,47.5L7.5,47.5z"/>
	<path fill="#FFFFFF" d="M7.9,47.6l-0.1,0.1v0.5H7.7v-1.4h0.1L7.9,47.6l0.4-0.7h0.1L7.9,47.6l0.5,0.7H8.3L7.9,47.6z"/>
	<path fill="#FFFFFF" d="M9.1,47.2v0.1H9L9.1,47.2C9,47.1,9,47,8.8,47c-0.2,0-0.2,0.1-0.2,0.3V48c0,0.1,0.1,0.3,0.2,0.3
		C9,48.2,9,48.1,9,48v-0.2h0.1v0.2c0,0.2-0.1,0.4-0.3,0.4c-0.2,0-0.3-0.2-0.3-0.4v-0.7c0-0.2,0.1-0.4,0.3-0.4
		C9,46.9,9.1,47,9.1,47.2z"/>
	<path fill="#FFFFFF" d="M9.4,48l-0.1,0.3H9.3l0.3-1.4h0.1l0.3,1.4H9.9L9.9,48H9.4z M9.4,47.9h0.4L9.6,47L9.4,47.9z"/>
	<path fill="#FFFFFF" d="M10.2,47.6v0.7h-0.1v-1.4h0.1V47.6l0.4-0.1v-0.7h0.1v1.4h-0.1v-0.7H10.2z"/>
	<path fill="#FFFFFF" d="M11.7,48.5v-0.2H11v0.2h-0.1v-0.3H11c0.1-0.1,0.1-0.1,0.1-0.2l0.1-1.1h0.5v1.3h0.1L11.7,48.5L11.7,48.5
		C11.7,48.5,11.7,48.5,11.7,48.5z M11.2,48c0,0.1,0,0.2-0.1,0.2h0.4V47h-0.3L11.2,48z"/>
	<path fill="#FFFFFF" d="M12.2,46.9c0.2,0,0.3,0.1,0.3,0.3v0.2c0,0.2-0.1,0.3-0.3,0.3H12v0.6h-0.1v-1.4
		C11.9,46.9,12.2,46.9,12.2,46.9z M12.2,47.6c0.2,0,0.2-0.1,0.2-0.2v-0.2c0-0.2-0.1-0.3-0.2-0.3H12v0.7C12,47.6,12.2,47.6,12.2,47.6
		z"/>
	<path fill="#FFFFFF" d="M13.1,47v1.3H13L13.1,47l0.5-0.1v1.4h-0.1V47H13.1z"/>
	<path fill="#FFFFFF" d="M13.9,48l-0.1,0.3h-0.1l0.3-1.4h0.1l0.3,1.4h-0.1L14.3,48H13.9z M13.9,47.9h0.4L14.1,47L13.9,47.9z"/>
	<path fill="#FFFFFF" d="M14.7,46.9v1.3h0.4v-1.3h0.1v1.3h0.4v-1.3h0.1v1.4h-1L14.7,46.9C14.6,46.9,14.7,46.9,14.7,46.9z"/>
	<path fill="#FFFFFF" d="M16.2,47.5L16.2,47.5l-0.4,0.1v0.6h0.5v0.1h-0.6v-1.4h0.6V47h-0.5v0.6L16.2,47.5L16.2,47.5z"/>
	<path fill="#FFFFFF" d="M16.5,47.6v0.7h-0.1v-1.4h0.1V47.6l0.4-0.1v-0.7h0.1v1.4H17v-0.7H16.5z"/>
	<path fill="#FFFFFF" d="M17.9,48.5v-0.2h-0.6v-1.4h0.1v1.3h0.4v-1.3h0.1v1.3H18L17.9,48.5C18,48.5,17.9,48.5,17.9,48.5z"/>
	<path fill="#FFFFFF" d="M18.6,47.5L18.6,47.5l-0.4,0.1v0.6h0.5v0.1h-0.6v-1.4h0.6V47h-0.5v0.6L18.6,47.5L18.6,47.5z"/>
	<path fill="#FFFFFF" d="M19.1,46.9c0.2,0,0.3,0.1,0.3,0.3v0.1c0,0.2,0,0.3-0.2,0.3c0.2,0,0.2,0.1,0.2,0.3V48c0,0.2-0.1,0.3-0.3,0.3
		h-0.3v-1.4C18.9,46.9,19.1,46.9,19.1,46.9z M19.1,47.5c0.2,0,0.2,0,0.2-0.2v-0.1c0-0.2-0.1-0.2-0.2-0.2h-0.2v0.5
		C18.9,47.5,19.1,47.5,19.1,47.5z M19.1,48.2c0.1,0,0.2-0.1,0.2-0.2v-0.1c0-0.2-0.1-0.3-0.3-0.3h-0.2v0.6H19.1z"/>
</g>
<g>
	<path fill="#FFFFFF" d="M0.5,58.7L0.5,59H0.4l0.3-1.4h0.1L1.1,59H1L1,58.7H0.5z M0.5,58.6h0.4l-0.2-0.9L0.5,58.6z"/>
	<path fill="#FFFFFF" d="M1.5,57.7l0,1c0,0.2,0,0.3-0.3,0.3h0v-0.1c0.2,0,0.2-0.1,0.2-0.3L1.5,57.7L2,57.6V59H1.9v-1.3H1.5z"/>
	<path fill="#FFFFFF" d="M2.6,58.3L2.6,58.3l-0.4,0.1v0.6h0.5V59H2.1v-1.4h0.5v0.1H2.2v0.6L2.6,58.3L2.6,58.3z"/>
	<path fill="#FFFFFF" d="M3,58.4l-0.1,0.1V59H2.8v-1.4h0.1L3,58.4l0.4-0.7h0.1L3,58.4L3.5,59H3.4L3,58.4z"/>
	<path fill="#FFFFFF" d="M4.3,58v0.1H4.2L4.3,58c-0.1-0.2-0.2-0.3-0.3-0.3c-0.1,0-0.2,0.1-0.2,0.3v0.7c0,0.1,0.1,0.3,0.2,0.3
		c0.2,0,0.2-0.1,0.2-0.3v-0.2h0.1v0.2C4.3,58.9,4.2,59,4,59c-0.2,0-0.3-0.2-0.3-0.4V58c0-0.2,0.1-0.4,0.3-0.4
		C4.2,57.6,4.3,57.8,4.3,58z"/>
	<path fill="#FFFFFF" d="M4.5,58.7L4.5,59H4.4l0.3-1.4h0.1L5.1,59H5L5,58.7H4.5z M4.5,58.6H5l-0.2-0.9L4.5,58.6z"/>
	<path fill="#FFFFFF" d="M5.4,58.4V59H5.3v-1.4h0.1V58.4l0.4-0.1v-0.7h0.1V59H5.8v-0.7H5.4z"/>
	<path fill="#FFFFFF" d="M6.8,59.2V59H6.1v0.2H6v-0.3h0.1c0.1-0.1,0.1-0.1,0.1-0.2l0.1-1.1h0.5v1.3h0.1L6.8,59.2L6.8,59.2
		C6.8,59.2,6.8,59.2,6.8,59.2z M6.3,58.7c0,0.1,0,0.2-0.1,0.2h0.4v-1.2H6.3L6.3,58.7z"/>
	<path fill="#FFFFFF" d="M7.3,57.6c0.2,0,0.3,0.1,0.3,0.3v0.2c0,0.2-0.1,0.3-0.3,0.3H7.1V59H7v-1.4C7,57.6,7.3,57.6,7.3,57.6z
		 M7.3,58.4c0.2,0,0.2-0.1,0.2-0.2V58c0-0.2-0.1-0.3-0.2-0.3H7.1v0.7C7.1,58.4,7.3,58.4,7.3,58.4z"/>
	<path fill="#FFFFFF" d="M8.2,57.7V59H8.1L8.2,57.7l0.5-0.1V59H8.6v-1.3H8.2z"/>
	<path fill="#FFFFFF" d="M9,58.7L8.9,59H8.8l0.3-1.4h0.1L9.6,59H9.5l-0.1-0.3H9z M9,58.6h0.4l-0.2-0.9L9,58.6z"/>
	<path fill="#FFFFFF" d="M9.8,57.6v1.3h0.4v-1.3h0.1v1.3h0.4v-1.3h0.1V59h-1L9.8,57.6C9.7,57.6,9.8,57.6,9.8,57.6z"/>
	<path fill="#FFFFFF" d="M11.3,58.3L11.3,58.3L11,58.4v0.6h0.5V59h-0.6v-1.4h0.6v0.1H11v0.6L11.3,58.3L11.3,58.3z"/>
	<path fill="#FFFFFF" d="M11.7,58.4V59h-0.1v-1.4h0.1V58.4l0.4-0.1v-0.7h0.1V59h-0.1v-0.7H11.7z"/>
	<path fill="#FFFFFF" d="M13,59.2V59h-0.7v-1.4h0.1v1.3h0.4v-1.3H13v1.3h0.1L13,59.2C13.1,59.2,13,59.2,13,59.2z"/>
	<path fill="#FFFFFF" d="M13.7,58.3L13.7,58.3l-0.4,0.1v0.6h0.5V59h-0.5v-1.4h0.5v0.1h-0.5v0.6L13.7,58.3L13.7,58.3z"/>
	<path fill="#FFFFFF" d="M14.3,57.6c0.2,0,0.3,0.1,0.3,0.3V58c0,0.2,0,0.3-0.2,0.3c0.1,0,0.2,0.1,0.2,0.3v0.1c0,0.2-0.1,0.3-0.3,0.3
		H14v-1.4C14,57.6,14.3,57.6,14.3,57.6z M14.2,58.2c0.2,0,0.2,0,0.2-0.2v-0.1c0-0.2-0.1-0.2-0.2-0.2h-0.2v0.5
		C14.1,58.2,14.2,58.2,14.2,58.2z M14.3,58.9c0.2,0,0.2-0.1,0.2-0.2v-0.1c0-0.2-0.1-0.3-0.3-0.3h-0.2v0.6H14.3z"/>
</g>
<g>
	<path fill-rule="evenodd" clip-rule="evenodd" fill="#AD0000" d="M-17.3,75.3c-0.2,0.1-0.5,0.1-0.7,0.2v1.7h-0.4V64h0.4v1.7
		c0.2,0,0.5,0.1,0.7,0.2v1c-0.2-0.1-0.5-0.2-0.7-0.2v7.9c0.3-0.1,0.5-0.1,0.7-0.2V75.3z"/>
	<path fill-rule="evenodd" clip-rule="evenodd" fill="#AD0000" d="M-15.9,74.6c-0.2,0.2-0.5,0.3-0.7,0.4v2.1H-17V64h0.4v2.1
		c0.3,0.1,0.5,0.3,0.7,0.4v1.2c-0.2-0.2-0.5-0.4-0.7-0.6V74c0.3-0.2,0.5-0.4,0.7-0.6V74.6z"/>
	<path fill-rule="evenodd" clip-rule="evenodd" fill="#AD0000" d="M-15.5,66.8c1,0.9,1.7,2.3,1.7,3.8c0,1.5-0.7,2.8-1.7,3.8v-1.4
		c0.5-0.7,0.8-1.5,0.8-2.4c0-0.9-0.3-1.7-0.8-2.4V66.8z"/>
	<path fill-rule="evenodd" clip-rule="evenodd" fill="#AD0000" d="M-22.6,73.8c-0.7-0.9-1.1-2-1.1-3.2c0-1.2,0.4-2.3,1.1-3.2v1.9
		c-0.1,0.4-0.2,0.8-0.2,1.3c0,0.4,0.1,0.9,0.2,1.3V73.8z"/>
	<path fill-rule="evenodd" clip-rule="evenodd" fill="#AD0000" d="M-21.3,74.9c-0.3-0.1-0.5-0.3-0.7-0.5v2.8h-0.4V64h0.4v2.8
		c0.2-0.2,0.5-0.4,0.7-0.5v1.1c-0.3,0.2-0.5,0.5-0.7,0.7V73c0.2,0.3,0.5,0.5,0.7,0.7V74.9z"/>
	<path fill-rule="evenodd" clip-rule="evenodd" fill="#AD0000" d="M-20,75.4c-0.3-0.1-0.5-0.1-0.7-0.2v2h-0.4V64h0.4v2
		c0.2-0.1,0.5-0.2,0.7-0.2v1c-0.3,0.1-0.5,0.2-0.7,0.3v7.2c0.2,0.1,0.5,0.2,0.7,0.3V75.4z"/>
	<path fill-rule="evenodd" clip-rule="evenodd" fill="#AD0000" d="M-18.8,75.6c-0.2,0-0.4,0-0.5,0v1.6h-0.4V64h0.4v1.6
		c0.2,0,0.4,0,0.5,0c0.1,0,0.1,0,0.2,0v0.9c-0.1,0-0.1,0-0.2,0c-0.2,0-0.4,0-0.5,0v8c0.2,0,0.4,0,0.5,0c0.1,0,0.1,0,0.2,0v0.9
		C-18.7,75.6-18.7,75.6-18.8,75.6"/>
	<rect x="-15.7" y="64" fill-rule="evenodd" clip-rule="evenodd" fill="#AD0000" width="0.4" height="13.2"/>
</g>
<g>
	<path fill="#FFFFFF" d="M-11.4,69.8l-0.2,0.9h-0.3l0.9-4.2h0.4l0.9,4.2h-0.3l-0.2-0.9H-11.4z M-11.3,69.5h1.2l-0.6-2.7L-11.3,69.5z
		"/>
	<path fill="#FFFFFF" d="M-8.3,66.7l-0.1,2.9c0,0.6-0.1,1-0.7,1h-0.1v-0.3c0.5,0,0.5-0.4,0.5-0.8l0.1-3.2H-7v4.2h-0.3v-3.9H-8.3z"/>
	<path fill="#FFFFFF" d="M-5.1,68.4v0.3h-1.1v1.8h1.4v0.3h-1.7v-4.2h1.7v0.3h-1.4v1.7H-5.1z"/>
	<path fill="#FFFFFF" d="M-3.9,68.7l-0.3,0.5v1.5h-0.3v-4.2h0.3v2.2l1.4-2.2h0.3l-1.2,2l1.3,2.2h-0.3L-3.9,68.7z"/>
	<path fill="#FFFFFF" d="M-0.2,67.5v0.3h-0.3v-0.4c0-0.4-0.2-0.8-0.6-0.8c-0.5,0-0.6,0.3-0.6,0.8v2.2c0,0.5,0.2,0.8,0.6,0.8
		c0.5,0,0.6-0.3,0.6-0.8v-0.5h0.3v0.5c0,0.6-0.3,1.1-0.9,1.1S-2,70.3-2,69.7v-2.1c0-0.6,0.3-1.1,0.9-1.1S-0.2,66.9-0.2,67.5z"/>
	<path fill="#FFFFFF" d="M0.6,69.8l-0.2,0.9H0.2l0.9-4.2h0.4l0.9,4.2H2.2L2,69.8H0.6z M0.7,69.5h1.2l-0.6-2.7L0.7,69.5z"/>
	<path fill="#FFFFFF" d="M3.1,68.7v2H2.9v-4.2h0.3v2h1.3v-2h0.3v4.2H4.4v-2H3.1z"/>
	<path fill="#FFFFFF" d="M7.4,71.3v-0.6h-2v0.6H5.2v-0.8h0.3c0.2-0.2,0.2-0.4,0.2-0.7l0.2-3.3h1.5v3.9h0.3v0.8H7.4z M5.9,69.8
		c0,0.3,0,0.5-0.2,0.7h1.3v-3.7h-1L5.9,69.8z"/>
	<path fill="#FFFFFF" d="M9,66.5c0.6,0,0.9,0.4,0.9,1V68c0,0.7-0.3,1-1,1H8.4v1.7H8.1v-4.2H9z M8.9,68.7c0.5,0,0.7-0.2,0.7-0.7v-0.5
		c0-0.5-0.2-0.8-0.6-0.8H8.4v2H8.9z"/>
	<path fill="#FFFFFF" d="M-11.5,71.7v3.9h-0.3v-4.2h1.9v4.2h-0.3v-3.9H-11.5z"/>
	<path fill="#FFFFFF" d="M-9,74.8l-0.2,0.9h-0.3l0.9-4.2h0.4l0.9,4.2h-0.3l-0.2-0.9H-9z M-9,74.5h1.2l-0.6-2.7L-9,74.5z"/>
	<path fill="#FFFFFF" d="M-6.5,71.5v3.9h1v-3.9h0.3v3.9h1v-3.9h0.3v4.2h-2.9v-4.2H-6.5z"/>
	<path fill="#FFFFFF" d="M-2,73.4v0.3h-1.1v1.8h1.4v0.3h-1.7v-4.2h1.7v0.3h-1.4v1.7H-2z"/>
	<path fill="#FFFFFF" d="M-1,73.7v2h-0.3v-4.2H-1v2h1.3v-2h0.3v4.2H0.3v-2H-1z"/>
	<path fill="#FFFFFF" d="M3,76.3v-0.6H1.1v-4.2h0.3v3.9h1.3v-3.9H3v3.9h0.3v0.8H3z"/>
	<path fill="#FFFFFF" d="M5.2,73.4v0.3H4v1.8h1.4v0.3H3.8v-4.2h1.7v0.3H4v1.7H5.2z"/>
	<path fill="#FFFFFF" d="M6.7,71.5c0.6,0,0.9,0.3,0.9,0.9v0.2c0,0.5-0.1,0.7-0.6,0.8c0.5,0.1,0.6,0.4,0.6,0.9v0.4c0,0.6-0.3,1-0.9,1
		H5.9v-4.2H6.7z M6.6,73.3c0.5,0,0.7-0.1,0.7-0.7v-0.3c0-0.4-0.1-0.7-0.6-0.7H6.1v1.6H6.6z M6.8,75.4c0.5,0,0.6-0.3,0.6-0.7v-0.4
		c0-0.5-0.2-0.7-0.7-0.7H6.1v1.8H6.8z"/>
</g>
</svg>
